<mxfile host="app.diagrams.net" agent="Mozilla/5.0 (Windows NT 10.0; Win64; x64) AppleWebKit/537.36 (KHTML, like Gecko) Chrome/131.0.0.0 Safari/537.36 Edg/131.0.0.0" version="25.0.1">
  <diagram name="Page-1" id="mIEvpMRF5k5kmpMgE4_K">
    <mxGraphModel dx="1718" dy="1571" grid="1" gridSize="10" guides="1" tooltips="1" connect="1" arrows="1" fold="1" page="1" pageScale="1" pageWidth="850" pageHeight="1100" math="0" shadow="0">
      <root>
        <mxCell id="0" />
        <mxCell id="1" parent="0" />
        <mxCell id="nEb8p-hpVcFT0ts8txNr-1" value="" style="edgeStyle=orthogonalEdgeStyle;rounded=0;orthogonalLoop=1;jettySize=auto;html=1;" edge="1" parent="1" source="nEb8p-hpVcFT0ts8txNr-2" target="nEb8p-hpVcFT0ts8txNr-4">
          <mxGeometry relative="1" as="geometry" />
        </mxCell>
        <mxCell id="nEb8p-hpVcFT0ts8txNr-2" value="&lt;font data-font-src=&quot;https://fonts.googleapis.com/css?family=Sarabun&quot; face=&quot;Sarabun&quot;&gt;Start&lt;/font&gt;" style="ellipse;whiteSpace=wrap;html=1;" vertex="1" parent="1">
          <mxGeometry x="-530.0000000000001" y="-1030" width="130" height="30" as="geometry" />
        </mxCell>
        <mxCell id="nEb8p-hpVcFT0ts8txNr-11" value="" style="edgeStyle=orthogonalEdgeStyle;rounded=0;orthogonalLoop=1;jettySize=auto;html=1;" edge="1" parent="1" source="nEb8p-hpVcFT0ts8txNr-4" target="nEb8p-hpVcFT0ts8txNr-10">
          <mxGeometry relative="1" as="geometry" />
        </mxCell>
        <mxCell id="nEb8p-hpVcFT0ts8txNr-4" value="กำหนดตัวแปร name" style="rounded=0;whiteSpace=wrap;html=1;" vertex="1" parent="1">
          <mxGeometry x="-530.0000000000001" y="-960" width="130" height="40" as="geometry" />
        </mxCell>
        <mxCell id="nEb8p-hpVcFT0ts8txNr-9" value="&lt;font data-font-src=&quot;https://fonts.googleapis.com/css?family=Sarabun&quot; face=&quot;Sarabun&quot;&gt;End&lt;/font&gt;" style="ellipse;whiteSpace=wrap;html=1;" vertex="1" parent="1">
          <mxGeometry x="-530.0100000000001" y="-230" width="130" height="30" as="geometry" />
        </mxCell>
        <mxCell id="nEb8p-hpVcFT0ts8txNr-13" value="" style="edgeStyle=orthogonalEdgeStyle;rounded=0;orthogonalLoop=1;jettySize=auto;html=1;" edge="1" parent="1" source="nEb8p-hpVcFT0ts8txNr-10" target="nEb8p-hpVcFT0ts8txNr-12">
          <mxGeometry relative="1" as="geometry" />
        </mxCell>
        <mxCell id="nEb8p-hpVcFT0ts8txNr-10" value="กำหนดตัวแปร input" style="rounded=0;whiteSpace=wrap;html=1;" vertex="1" parent="1">
          <mxGeometry x="-530.0000000000001" y="-890" width="130" height="40" as="geometry" />
        </mxCell>
        <mxCell id="nEb8p-hpVcFT0ts8txNr-18" value="" style="edgeStyle=orthogonalEdgeStyle;rounded=0;orthogonalLoop=1;jettySize=auto;html=1;" edge="1" parent="1" source="nEb8p-hpVcFT0ts8txNr-12" target="nEb8p-hpVcFT0ts8txNr-17">
          <mxGeometry relative="1" as="geometry" />
        </mxCell>
        <mxCell id="nEb8p-hpVcFT0ts8txNr-12" value="กำหนดตัวแปร data" style="rounded=0;whiteSpace=wrap;html=1;" vertex="1" parent="1">
          <mxGeometry x="-530.0000000000001" y="-820" width="130" height="40" as="geometry" />
        </mxCell>
        <mxCell id="nEb8p-hpVcFT0ts8txNr-22" value="" style="edgeStyle=orthogonalEdgeStyle;rounded=0;orthogonalLoop=1;jettySize=auto;html=1;" edge="1" parent="1" source="nEb8p-hpVcFT0ts8txNr-16" target="nEb8p-hpVcFT0ts8txNr-21">
          <mxGeometry relative="1" as="geometry" />
        </mxCell>
        <mxCell id="nEb8p-hpVcFT0ts8txNr-16" value="รับค่า input" style="rounded=0;whiteSpace=wrap;html=1;shape=parallelogram;perimeter=parallelogramPerimeter;fixedSize=1;" vertex="1" parent="1">
          <mxGeometry x="-530.0000000000001" y="-650" width="130" height="40" as="geometry" />
        </mxCell>
        <mxCell id="nEb8p-hpVcFT0ts8txNr-19" value="" style="edgeStyle=orthogonalEdgeStyle;rounded=0;orthogonalLoop=1;jettySize=auto;html=1;" edge="1" parent="1" source="nEb8p-hpVcFT0ts8txNr-17" target="nEb8p-hpVcFT0ts8txNr-16">
          <mxGeometry relative="1" as="geometry" />
        </mxCell>
        <mxCell id="nEb8p-hpVcFT0ts8txNr-17" value="Loop" style="rhombus;whiteSpace=wrap;html=1;" vertex="1" parent="1">
          <mxGeometry x="-505" y="-750" width="80" height="70" as="geometry" />
        </mxCell>
        <mxCell id="nEb8p-hpVcFT0ts8txNr-20" value="T" style="text;html=1;align=center;verticalAlign=middle;resizable=0;points=[];autosize=1;strokeColor=none;fillColor=none;" vertex="1" parent="1">
          <mxGeometry x="-460" y="-700" width="30" height="30" as="geometry" />
        </mxCell>
        <mxCell id="nEb8p-hpVcFT0ts8txNr-24" value="" style="edgeStyle=orthogonalEdgeStyle;rounded=0;orthogonalLoop=1;jettySize=auto;html=1;" edge="1" parent="1" source="nEb8p-hpVcFT0ts8txNr-21" target="nEb8p-hpVcFT0ts8txNr-23">
          <mxGeometry relative="1" as="geometry" />
        </mxCell>
        <mxCell id="nEb8p-hpVcFT0ts8txNr-21" value="name = input" style="rounded=0;whiteSpace=wrap;html=1;shape=label;fixedSize=1;" vertex="1" parent="1">
          <mxGeometry x="-530.0000000000001" y="-580" width="130" height="40" as="geometry" />
        </mxCell>
        <mxCell id="nEb8p-hpVcFT0ts8txNr-27" value="" style="edgeStyle=orthogonalEdgeStyle;rounded=0;orthogonalLoop=1;jettySize=auto;html=1;" edge="1" parent="1" source="nEb8p-hpVcFT0ts8txNr-23" target="nEb8p-hpVcFT0ts8txNr-26">
          <mxGeometry relative="1" as="geometry" />
        </mxCell>
        <mxCell id="nEb8p-hpVcFT0ts8txNr-31" style="edgeStyle=orthogonalEdgeStyle;rounded=0;orthogonalLoop=1;jettySize=auto;html=1;entryX=0;entryY=0.5;entryDx=0;entryDy=0;" edge="1" parent="1" source="nEb8p-hpVcFT0ts8txNr-23" target="nEb8p-hpVcFT0ts8txNr-17">
          <mxGeometry relative="1" as="geometry">
            <Array as="points">
              <mxPoint x="-570" y="-460" />
              <mxPoint x="-570" y="-715" />
            </Array>
          </mxGeometry>
        </mxCell>
        <mxCell id="nEb8p-hpVcFT0ts8txNr-23" value="input = Y หรือ y" style="rhombus;whiteSpace=wrap;html=1;" vertex="1" parent="1">
          <mxGeometry x="-518.34" y="-500" width="106.67" height="80" as="geometry" />
        </mxCell>
        <mxCell id="nEb8p-hpVcFT0ts8txNr-25" value="T" style="text;html=1;align=center;verticalAlign=middle;resizable=0;points=[];autosize=1;strokeColor=none;fillColor=none;" vertex="1" parent="1">
          <mxGeometry x="-460" y="-430" width="30" height="30" as="geometry" />
        </mxCell>
        <mxCell id="nEb8p-hpVcFT0ts8txNr-29" value="" style="edgeStyle=orthogonalEdgeStyle;rounded=0;orthogonalLoop=1;jettySize=auto;html=1;" edge="1" parent="1" source="nEb8p-hpVcFT0ts8txNr-26" target="nEb8p-hpVcFT0ts8txNr-28">
          <mxGeometry relative="1" as="geometry" />
        </mxCell>
        <mxCell id="nEb8p-hpVcFT0ts8txNr-26" value="ปริ้นค่า name" style="rounded=0;whiteSpace=wrap;html=1;" vertex="1" parent="1">
          <mxGeometry x="-530.0000000000001" y="-390" width="130" height="40" as="geometry" />
        </mxCell>
        <mxCell id="nEb8p-hpVcFT0ts8txNr-34" value="" style="edgeStyle=orthogonalEdgeStyle;rounded=0;orthogonalLoop=1;jettySize=auto;html=1;" edge="1" parent="1" source="nEb8p-hpVcFT0ts8txNr-28" target="nEb8p-hpVcFT0ts8txNr-9">
          <mxGeometry relative="1" as="geometry" />
        </mxCell>
        <mxCell id="nEb8p-hpVcFT0ts8txNr-28" value="ออก loop" style="rounded=0;whiteSpace=wrap;html=1;" vertex="1" parent="1">
          <mxGeometry x="-530.0000000000001" y="-310" width="130" height="40" as="geometry" />
        </mxCell>
        <mxCell id="nEb8p-hpVcFT0ts8txNr-35" value="F" style="text;html=1;align=center;verticalAlign=middle;resizable=0;points=[];autosize=1;strokeColor=none;fillColor=none;" vertex="1" parent="1">
          <mxGeometry x="-535" y="-490" width="30" height="30" as="geometry" />
        </mxCell>
      </root>
    </mxGraphModel>
  </diagram>
</mxfile>
